<svg width="1200" height="1200" viewBox="0 0 1200 1200" fill="none" xmlns="http://www.w3.org/2000/svg">
<path d="M295.875 159.642C277.047 105.848 267.633 78.9506 272.782 57.4955C277.289 38.7193 288.864 22.4047 305.097 11.9483C323.647 0 352.144 0 409.138 0H454.862C485.51 0 500.834 0 513.927 5.08186C525.49 9.57017 535.76 16.8565 543.817 26.2884C552.939 36.9675 558.001 51.431 568.125 80.3579L904.125 1040.36C922.953 1094.15 932.367 1121.05 927.218 1142.5C922.711 1161.28 911.136 1177.6 894.903 1188.05C876.353 1200 847.856 1200 790.862 1200H745.138C714.49 1200 699.166 1200 686.073 1194.92C674.51 1190.43 664.24 1183.14 656.183 1173.71C647.061 1163.03 641.999 1148.57 631.875 1119.64L295.875 159.642Z" fill="#E28413"/>
</svg>
